inDegrees=yes
name=ik_S50_A05_T02
DataType=double
version=3
OpenSimVersion=4.3-2021-08-27-4bc7ad9
endheader
time	pelvis_tilt	pelvis_list	pelvis_rotation	pelvis_tx	pelvis_ty	pelvis_tz	hip_flexion_r	hip_adduction_r	hip_rotation_r	knee_angle_r	knee_angle_r_beta	ankle_angle_r	subtalar_angle_r	mtp_angle_r	hip_flexion_l	hip_adduction_l	hip_rotation_l	knee_angle_l	knee_angle_l_beta	ankle_angle_l	subtalar_angle_l	mtp_angle_l	lumbar_extension	lumbar_bending	lumbar_rotation	arm_flex_r	arm_add_r	arm_rot_r	elbow_flex_r	pro_sup_r	wrist_flex_r	wrist_dev_r	arm_flex_l	arm_add_l	arm_rot_l	elbow_flex_l	pro_sup_l	wrist_flex_l	wrist_dev_l
24.17999999999957	-5.597083382626374	-3.581739501565189	29.41344232198064	0	0.9399999999999999	0	43.25169154721733	-10.05227151068233	-10.13825203878335	48.04833857442991	0.8386017082368004	0	0	0	43.25169154721733	-10.05227151068233	-10.13825203878335	48.04833857442991	0.8386017082368004	0	0	0	-4.790768497058211	-1.801405666451098	5.334680408263941	41.02063499883876	-22.3171708110092	-5.937625727304349	85.44882269967877	65.26958346441602	0	0	17.26759731636411	-7.469605129421558	-6.584560438994182	60.84736304289983	122.3493034908901	0	0
24.19999999999957	-5.595224106272862	-3.563797670783614	29.38016426553013	0	0.9399999999999999	0	43.25261287139579	-10.05217520680297	-10.13808872666077	48.05081434825104	0.8386449186415139	0	0	0	43.25261287139579	-10.05217520680297	-10.13808872666077	48.05081434825104	0.8386449186415139	0	0	0	-4.780294154903799	-1.787771532921141	5.347100183584992	40.82526172934264	-22.29124869268795	-5.992537386640723	85.2348805334411	65.52173244702267	0	0	17.22000573657251	-7.510908787840239	-6.529337880056177	60.88755908815333	122.2647236906044	0	0
24.21999999999957	-5.607975445829834	-3.55233518116181	29.32569264795029	0	0.9399999999999999	0	43.2540800444942	-10.05202235383912	-10.1378291486428	48.05476314373687	0.8387138381242295	0	0	0	43.2540800444942	-10.05202235383912	-10.1378291486428	48.05476314373687	0.8387138381242295	0	0	0	-4.785797076970238	-1.773326212426027	5.365080207825583	40.6888134698556	-22.09387120747019	-6.025038203439084	84.52398629916931	66.20186436269796	0	0	17.23195789258682	-7.513262050604894	-6.526127833186248	60.87149532016861	122.2975232788929	0	0
24.23999999999957	-5.619634828935713	-3.546872994082249	29.28733823053232	0	0.9399999999999999	0	43.25536325787874	-10.05188926467538	-10.13760272537865	48.05822632965136	0.838774282121046	0	0	0	43.25536325787874	-10.05188926467538	-10.13760272537865	48.05822632965136	0.838774282121046	0	0	0	-4.793570843997688	-1.763200456032532	5.377604197130637	40.54551043747588	-21.88926971433314	-6.060076836029517	83.8495127513483	66.87909858387081	0	0	17.24565614270526	-7.498051583351351	-6.556988348514395	60.87535018612147	122.348838367113	0	0
24.25999999999957	-5.640107112153295	-3.533347415439831	29.22695451344762	0	0.9399999999999999	0	43.25662344268846	-10.05175865450046	-10.13738039672453	48.06162427475365	0.8388335874508829	0	0	0	43.25662344268846	-10.05175865450046	-10.13738039672453	48.06162427475365	0.8388335874508829	0	0	0	-4.80408484244631	-1.744132731055656	5.403940055409033	40.57785110797824	-21.77445177716264	-6.041898351043877	83.13535476919661	67.3787903089908	0	0	17.25731706519521	-7.487818010124712	-6.527253724111379	60.86323483068077	122.3179087282631	0	0
24.27999999999957	-5.623917362280241	-3.5245598340504	29.21651492340057	0	0.9399999999999999	0	43.25758529496682	-10.05165945242202	-10.1372112091573	48.06422640051511	0.8388790031129715	0	0	0	43.25758529496682	-10.05165945242202	-10.1372112091573	48.06422640051511	0.8388790031129715	0	0	0	-4.784003018990798	-1.748524755625903	5.443073127700664	40.34591647491344	-21.56565435573691	-6.17171915792223	82.61345583352946	67.93329538567582	0	0	17.22613824892455	-7.506552002308258	-6.437703041551453	60.85714661931083	122.3192516150777	0	0
24.29999999999957	-5.646157100686846	-3.523024041038988	29.19871974670618	0	0.9399999999999999	0	43.25804317000043	-10.05161224965219	-10.13713067650525	48.06546432720526	0.8389006090096127	0	0	0	43.25804317000043	-10.05161224965219	-10.13713067650525	48.06546432720526	0.8389006090096127	0	0	0	-4.802970572082775	-1.736235042692548	5.445427040564929	40.25683792245334	-21.5017705909776	-6.22569673145976	82.6206872961497	68.09960674147251	0	0	17.24429926274475	-7.507600104979937	-6.432177501541272	60.86491776166756	122.304715281294	0	0
24.31999999999957	-5.645017550849381	-3.522166506703472	29.14625141292625	0	0.9399999999999999	0	43.25990564045581	-10.05142020588918	-10.13680296325965	48.07049206400462	0.8389883595706853	0	0	0	43.25990564045581	-10.05142020588918	-10.13680296325965	48.07049206400462	0.8389883595706853	0	0	0	-4.800303506285032	-1.741182781362967	5.492999816681784	40.14335453566488	-21.27183115489783	-6.368665914657655	81.82408589809947	68.83172237014519	0	0	17.24442207605802	-7.508867511407224	-6.437816363805666	60.85548881710505	122.3217275078177	0	0
24.33999999999957	-5.682520790274301	-3.481962099500556	29.20633071603719	0	0.9399999999999999	0	43.26037502018266	-10.05137220227635	-10.13672079944155	48.07176722391581	0.839010615309625	0	0	0	43.26037502018266	-10.05137220227635	-10.13672079944155	48.07176722391581	0.839010615309625	0	0	0	-4.812832464360572	-1.690065036769191	5.518217586639964	40.07435319472671	-21.34214361107106	-6.447224687749597	81.77841116299851	69.10061960064233	0	0	17.26929416172264	-7.412612550273852	-6.428250979291247	60.82820685911123	122.3225837475977	0	0
24.35999999999957	-5.682633584173595	-3.480143204627787	29.24070803298266	0	0.9399999999999999	0	43.26154196910907	-10.05125191951503	-10.13651543394041	48.07491222664846	0.839065505962294	0	0	0	43.26154196910907	-10.05125191951503	-10.13651543394041	48.07491222664846	0.839065505962294	0	0	0	-4.813596118963233	-1.686195215783653	5.502180204053445	40.11174232022853	-21.12182543229651	-6.503996486219966	81.41407886694005	69.47978853985916	0	0	17.25525466107936	-7.419907524542317	-6.449320919310166	60.83622828976127	122.3496661862273	0	0
24.37999999999957	-5.684128551705219	-3.477818683703463	29.27583331952052	0	0.9399999999999999	0	43.26618314410341	-10.05079018588272	-10.13571435520021	48.08746010316709	0.8392845077216778	0	0	0	43.26618314410341	-10.05079018588272	-10.13571435520021	48.08746010316709	0.8392845077216778	0	0	0	-4.816416691610604	-1.682530543408628	5.50784969811486	40.1347647238715	-21.13201032091558	-6.492232100655032	81.40577441293487	69.53134162813195	0	0	17.24245599189114	-7.436134380265707	-6.449797204732824	60.85699708074501	122.2909058590571	0	0
24.39999999999957	-5.67987383813876	-3.470244959062751	29.31076403248523	0	0.9399999999999999	0	43.26790534321243	-10.05061373553533	-10.13541206764266	48.09209590008762	0.8393654176413948	0	0	0	43.26790534321243	-10.05061373553533	-10.13541206764266	48.09209590008762	0.8393654176413948	0	0	0	-4.811437884567964	-1.674430974063984	5.481715164860455	40.13914854873605	-21.04689406637978	-6.332222149693511	81.08349262642241	69.96902545462225	0	0	17.23585999252028	-7.413079208592078	-6.467626066604081	60.80106434697067	122.3768209399395	0	0
24.41999999999957	-5.673360796073815	-3.46806649765934	29.35298191816397	0	0.9399999999999999	0	43.26817846419773	-10.05058599469144	-10.13536439297535	48.09283624499738	0.8393783390976706	0	0	0	43.26817846419773	-10.05058599469144	-10.13536439297535	48.09283624499738	0.8393783390976706	0	0	0	-4.804931509768047	-1.675455676656541	5.479677250027159	40.09704268079281	-21.08814824877162	-6.163464747253721	81.09155377015365	70.01221959535683	0	0	17.22904144236199	-7.38360268707492	-6.465707328789089	60.79631395601493	122.3830777526945	0	0
24.43999999999957	-5.662145660456724	-3.467791485339945	29.40537967367535	0	0.9399999999999999	0	43.26841727154677	-10.05056181455602	-10.13532279109269	48.09348523164128	0.8393896660514081	0	0	0	43.26841727154677	-10.05056181455602	-10.13532279109269	48.09348523164128	0.8393896660514081	0	0	0	-4.795588402431559	-1.679694268150039	5.470570295927494	40.03106478380693	-21.1236615851058	-5.931593454398866	81.08686295856918	70.10591790472797	0	0	17.23614203473555	-7.389462187863399	-6.45280390769718	60.77276618359343	122.3947218828177	0	0
